<svg width="20" height="20" viewBox="0 0 20 20" fill="none" xmlns="http://www.w3.org/2000/svg">
<path d="M3.58983 16.25C3.16886 16.25 2.81254 16.1042 2.52087 15.8125C2.22921 15.5208 2.08337 15.1645 2.08337 14.7435V5.25646C2.08337 4.83549 2.22921 4.47917 2.52087 4.1875C2.81254 3.89583 3.16886 3.75 3.58983 3.75H16.4102C16.8312 3.75 17.1875 3.89583 17.4792 4.1875C17.7709 4.47917 17.9167 4.83549 17.9167 5.25646V14.7435C17.9167 15.1645 17.7709 15.5208 17.4792 15.8125C17.1875 16.1042 16.8312 16.25 16.4102 16.25H3.58983ZM16.6667 6.20188L10.4055 10.21C10.3414 10.2462 10.2752 10.2748 10.2067 10.2956C10.1384 10.3165 10.0695 10.3269 10 10.3269C9.9306 10.3269 9.86171 10.3165 9.79337 10.2956C9.7249 10.2748 9.65865 10.2462 9.59462 10.21L3.33337 6.20188V14.7435C3.33337 14.8184 3.3574 14.8799 3.40546 14.9279C3.45351 14.976 3.51497 15 3.58983 15H16.4102C16.4851 15 16.5466 14.976 16.5946 14.9279C16.6427 14.8799 16.6667 14.8184 16.6667 14.7435V6.20188ZM10 9.16667L16.5386 5H3.4615L10 9.16667ZM3.33337 6.39417V5.44146V5.46625V5.43979V6.39417Z" fill="#171C1F"/>
</svg>
