<svg width="20" height="20" viewBox="0 0 20 20" fill="none" xmlns="http://www.w3.org/2000/svg">
<path d="M10 17.9163C8.91462 17.9163 7.89032 17.7083 6.92712 17.2922C5.96393 16.8761 5.12393 16.3095 4.40712 15.5926C3.69018 14.8758 3.12365 14.0358 2.70754 13.0726C2.29143 12.1094 2.08337 11.0851 2.08337 9.99967C2.08337 8.90565 2.29143 7.87919 2.70754 6.9203C3.12365 5.96141 3.69018 5.12356 4.40712 4.40676C5.12393 3.68981 5.96393 3.12329 6.92712 2.70717C7.89032 2.29106 8.91462 2.08301 10 2.08301C11.0941 2.08301 12.1205 2.29106 13.0794 2.70717C14.0383 3.12329 14.8762 3.68981 15.593 4.40676C16.3099 5.12356 16.8764 5.96141 17.2925 6.9203C17.7087 7.87919 17.9167 8.90565 17.9167 9.99967C17.9167 11.0851 17.7087 12.1094 17.2925 13.0726C16.8764 14.0358 16.3099 14.8758 15.593 15.5926C14.8762 16.3095 14.0383 16.8761 13.0794 17.2922C12.1205 17.7083 11.0941 17.9163 10 17.9163ZM10 16.6486C10.4253 16.0846 10.7832 15.5157 11.0738 14.942C11.3643 14.3682 11.601 13.7411 11.7838 13.0605H8.21629C8.40976 13.7625 8.64914 14.4003 8.93442 14.974C9.21955 15.5478 9.57476 16.106 10 16.6486ZM8.38629 16.4195C8.06685 15.9611 7.77997 15.4401 7.52567 14.8563C7.27136 14.2725 7.07372 13.6738 6.93275 13.0605H4.10587C4.54601 13.9259 5.13629 14.653 5.87671 15.2418C6.61712 15.8304 7.45365 16.2229 8.38629 16.4195ZM11.6138 16.4195C12.5464 16.2229 13.383 15.8304 14.1234 15.2418C14.8638 14.653 15.4541 13.9259 15.8942 13.0605H13.0673C12.8996 13.6791 12.6885 14.2804 12.4342 14.8643C12.18 15.4481 11.9066 15.9665 11.6138 16.4195ZM3.58171 11.8105H6.67962C6.62726 11.5008 6.58928 11.1971 6.56567 10.8995C6.54219 10.602 6.53046 10.302 6.53046 9.99967C6.53046 9.69731 6.54219 9.39738 6.56567 9.09988C6.58928 8.80224 6.62726 8.49856 6.67962 8.18884H3.58171C3.50157 8.4719 3.44018 8.7662 3.39754 9.07176C3.35476 9.37731 3.33337 9.68662 3.33337 9.99967C3.33337 10.3127 3.35476 10.622 3.39754 10.9276C3.44018 11.2331 3.50157 11.5275 3.58171 11.8105ZM7.92942 11.8105H12.0707C12.1229 11.5008 12.1608 11.1998 12.1844 10.9076C12.2079 10.6154 12.2196 10.3127 12.2196 9.99967C12.2196 9.68662 12.2079 9.38398 12.1844 9.09176C12.1608 8.79953 12.1229 8.49856 12.0707 8.18884H7.92942C7.87719 8.49856 7.83928 8.79953 7.81567 9.09176C7.79219 9.38398 7.78046 9.68662 7.78046 9.99967C7.78046 10.3127 7.79219 10.6154 7.81567 10.9076C7.83928 11.1998 7.87719 11.5008 7.92942 11.8105ZM13.3205 11.8105H16.4184C16.4985 11.5275 16.5599 11.2331 16.6025 10.9276C16.6453 10.622 16.6667 10.3127 16.6667 9.99967C16.6667 9.68662 16.6453 9.37731 16.6025 9.07176C16.5599 8.7662 16.4985 8.4719 16.4184 8.18884H13.3205C13.3728 8.49856 13.4108 8.80224 13.4344 9.09988C13.4579 9.39738 13.4696 9.69731 13.4696 9.99967C13.4696 10.302 13.4579 10.602 13.4344 10.8995C13.4108 11.1971 13.3728 11.5008 13.3205 11.8105ZM13.0673 6.93884H15.8942C15.4488 6.06273 14.8625 5.33565 14.1355 4.75759C13.4084 4.17967 12.5678 3.7844 11.6138 3.57176C11.9332 4.05676 12.2174 4.58724 12.4663 5.16322C12.7153 5.73905 12.9157 6.33092 13.0673 6.93884ZM8.21629 6.93884H11.7838C11.5903 6.24217 11.347 5.6003 11.0538 5.01322C10.7605 4.42613 10.4092 3.87197 10 3.35072C9.59087 3.87197 9.23962 4.42613 8.94629 5.01322C8.6531 5.6003 8.40976 6.24217 8.21629 6.93884ZM4.10587 6.93884H6.93275C7.08441 6.33092 7.28476 5.73905 7.53379 5.16322C7.78268 4.58724 8.06685 4.05676 8.38629 3.57176C7.42685 3.7844 6.58497 4.18106 5.86067 4.76176C5.13622 5.34231 4.55129 6.06801 4.10587 6.93884Z" fill="#171C1F"/>
</svg>
