<svg width="24" height="24" viewBox="0 0 24 24" fill="none" xmlns="http://www.w3.org/2000/svg">
<path d="M8.5 7.0125H8.5125V7V6.5C8.5125 5.53145 8.85162 4.70839 9.53009 4.03009C10.2084 3.35162 11.0314 3.0125 12 3.0125C12.9686 3.0125 13.7916 3.35162 14.4699 4.03009C15.1484 4.70839 15.4875 5.53145 15.4875 6.5V7V7.0125H15.5H17.3845C17.8417 7.0125 18.2228 7.16549 18.5287 7.47134C18.8345 7.77719 18.9875 8.15828 18.9875 8.6155V19.3845C18.9875 19.8417 18.8345 20.2228 18.5287 20.5287C18.2228 20.8345 17.8417 20.9875 17.3845 20.9875H6.6155C6.15828 20.9875 5.77719 20.8345 5.47134 20.5287C5.16549 20.2228 5.0125 19.8417 5.0125 19.3845V8.6155C5.0125 8.15828 5.16549 7.77719 5.47134 7.47134C5.77719 7.16549 6.15828 7.0125 6.6155 7.0125H8.5ZM15.5 7.9875H15.4875V8V10.5C15.4875 10.6392 15.4409 10.7549 15.3479 10.8479C15.2549 10.9409 15.1392 10.9875 15 10.9875C14.8608 10.9875 14.7451 10.9409 14.6521 10.8479C14.5591 10.7549 14.5125 10.6392 14.5125 10.5V8V7.9875H14.5H9.5H9.4875V8V10.5C9.4875 10.6392 9.44093 10.7549 9.34791 10.8479C9.25489 10.9409 9.13922 10.9875 9 10.9875C8.86078 10.9875 8.74511 10.9409 8.65209 10.8479C8.55907 10.7549 8.5125 10.6392 8.5125 10.5V8V7.9875H8.5H6.6155C6.4576 7.9875 6.31348 8.05335 6.18341 8.18341C6.05335 8.31348 5.9875 8.4576 5.9875 8.6155V19.3845C5.9875 19.5424 6.05335 19.6865 6.18341 19.8166C6.31348 19.9467 6.4576 20.0125 6.6155 20.0125H17.3845C17.5424 20.0125 17.6865 19.9467 17.8166 19.8166C17.9467 19.6865 18.0125 19.5424 18.0125 19.3845V8.6155C18.0125 8.4576 17.9467 8.31348 17.8166 8.18341C17.6865 8.05335 17.5424 7.9875 17.3845 7.9875H15.5ZM9.4875 7V7.0125H9.5H14.5H14.5125V7V6.5C14.5125 5.79298 14.2706 5.19709 13.7868 4.71316C13.3029 4.2294 12.707 3.9875 12 3.9875C11.293 3.9875 10.6971 4.2294 10.2132 4.71316L10.2132 4.71316C9.7294 5.19709 9.4875 5.79298 9.4875 6.5V7Z" fill="#404942" stroke="#404942" stroke-width="0.025"/>
</svg>
