<svg width="24" height="24" viewBox="0 0 24 24" fill="none" xmlns="http://www.w3.org/2000/svg">
<path d="M4 7.42829H17.7143C18.9767 7.42829 20 8.45164 20 9.71401V16.5712C20 17.8335 18.9767 18.8569 17.7143 18.8569H6.28571C5.02335 18.8569 4 17.8335 4 16.5712V7.42829ZM4 7.42829H16.5714V6.28544C16.5714 5.65425 16.0598 5.14258 15.4286 5.14258H5.14286C4.51167 5.14258 4 5.65425 4 6.28544V7.42829Z" stroke="#404942" stroke-linecap="round" stroke-linejoin="round"/>
<path d="M17.2143 13.1429C17.2143 13.4979 16.9265 13.7857 16.5714 13.7857C16.2164 13.7857 15.9286 13.4979 15.9286 13.1429C15.9286 12.7878 16.2164 12.5 16.5714 12.5C16.9265 12.5 17.2143 12.7878 17.2143 13.1429Z" fill="black" stroke="#404942"/>
</svg>
