<svg width="20" height="20" viewBox="0 0 20 20" fill="none" xmlns="http://www.w3.org/2000/svg">
<path d="M15.2976 10.607C15.3248 13.5445 17.8748 14.5222 17.9029 14.5347C17.8814 14.6034 17.4956 15.9278 16.5597 17.2954C15.7506 18.4779 14.9108 19.6561 13.5881 19.6808C12.2884 19.7045 11.8704 18.9098 10.3844 18.9098C8.89873 18.9098 8.43451 19.6561 7.20404 19.7045C5.92717 19.7529 4.95482 18.4256 4.13904 17.2476C2.47217 14.8376 1.19826 10.4375 2.90873 7.46731C3.75842 5.99231 5.27717 5.05841 6.92545 5.03435C8.1792 5.01044 9.36263 5.87778 10.129 5.87778C10.895 5.87778 12.3331 4.83466 13.845 4.98778C14.4779 5.01419 16.2545 5.24341 17.3953 6.91341C17.3036 6.97044 15.2756 8.15106 15.2976 10.607ZM12.855 3.39356C13.5328 2.5731 13.989 1.4306 13.8647 0.294189C12.8875 0.333408 11.7059 0.945283 11.0051 1.76544C10.377 2.49153 9.82701 3.65403 9.97529 4.76794C11.0645 4.85231 12.177 4.2145 12.855 3.39356Z" fill="#001E31"/>
</svg>
