<svg width="24" height="24" viewBox="0 0 24 24" fill="none" xmlns="http://www.w3.org/2000/svg">
<path fill-rule="evenodd" clip-rule="evenodd" d="M14.136 6.26394C14.3045 6.43269 14.3992 6.66144 14.3992 6.89994C14.3992 7.13844 14.3045 7.36719 14.136 7.53594L9.672 11.9999L14.136 16.4639C14.2244 16.5463 14.2953 16.6457 14.3445 16.7561C14.3937 16.8665 14.4202 16.9857 14.4223 17.1065C14.4244 17.2274 14.4022 17.3474 14.3569 17.4595C14.3117 17.5715 14.2443 17.6733 14.1588 17.7588C14.0734 17.8442 13.9716 17.9116 13.8595 17.9569C13.7475 18.0022 13.6274 18.0244 13.5066 18.0223C13.3857 18.0201 13.2666 17.9937 13.1562 17.9445C13.0458 17.8953 12.9464 17.8244 12.864 17.7359L7.764 12.6359C7.59546 12.4672 7.50079 12.2384 7.50079 11.9999C7.50079 11.7614 7.59546 11.5327 7.764 11.3639L12.864 6.26394C13.0328 6.0954 13.2615 6.00073 13.5 6.00073C13.7385 6.00073 13.9673 6.0954 14.136 6.26394Z" fill="#191D17"/>
</svg>
