<svg width="16" height="16" viewBox="0 0 16 16" fill="none" xmlns="http://www.w3.org/2000/svg">
<path d="M5.02401 4.17617C4.91027 4.07019 4.75984 4.01249 4.60439 4.01523C4.44895 4.01797 4.30065 4.08094 4.19072 4.19087C4.08078 4.3008 4.01782 4.44911 4.01507 4.60455C4.01233 4.75999 4.07003 4.91043 4.17601 5.02417L7.15201 8.00017L4.17601 10.9762C4.11706 11.0311 4.06978 11.0973 4.03699 11.1709C4.00419 11.2445 3.98656 11.324 3.98514 11.4046C3.98372 11.4851 3.99854 11.5651 4.02871 11.6398C4.05889 11.7146 4.10381 11.7824 4.16078 11.8394C4.21776 11.8964 4.28562 11.9413 4.36033 11.9715C4.43505 12.0016 4.51507 12.0165 4.59563 12.015C4.67619 12.0136 4.75564 11.996 4.82924 11.9632C4.90284 11.9304 4.96908 11.8831 5.02401 11.8242L8.00001 8.84817L10.976 11.8242C11.0309 11.8831 11.0972 11.9304 11.1708 11.9632C11.2444 11.996 11.3238 12.0136 11.4044 12.015C11.485 12.0165 11.565 12.0016 11.6397 11.9715C11.7144 11.9413 11.7823 11.8964 11.8392 11.8394C11.8962 11.7824 11.9411 11.7146 11.9713 11.6398C12.0015 11.5651 12.0163 11.4851 12.0149 11.4046C12.0135 11.324 11.9958 11.2445 11.963 11.1709C11.9302 11.0973 11.883 11.0311 11.824 10.9762L8.84801 8.00017L11.824 5.02417C11.93 4.91043 11.9877 4.75999 11.985 4.60455C11.9822 4.44911 11.9192 4.3008 11.8093 4.19087C11.6994 4.08094 11.5511 4.01797 11.3956 4.01523C11.2402 4.01249 11.0898 4.07019 10.976 4.17617L8.00001 7.15217L5.02401 4.17617Z" fill="#E02A1A"/>
</svg>
