<svg width="16" height="16" viewBox="0 0 16 16" fill="none" xmlns="http://www.w3.org/2000/svg">
<path d="M4.20517 14.3334C3.86839 14.3334 3.58333 14.2167 3.35 13.9834C3.11667 13.7501 3 13.465 3 13.1282V5.53858C3 5.2018 3.11667 4.91675 3.35 4.68341C3.58333 4.45008 3.86839 4.33341 4.20517 4.33341H5.5V4.16675C5.5 3.47619 5.744 2.88686 6.232 2.39875C6.72011 1.91075 7.30944 1.66675 8 1.66675C8.69056 1.66675 9.27989 1.91075 9.768 2.39875C10.256 2.88686 10.5 3.47619 10.5 4.16675V4.33341H11.7948C12.1316 4.33341 12.4167 4.45008 12.65 4.68341C12.8833 4.91675 13 5.2018 13 5.53858V13.1282C13 13.465 12.8833 13.7501 12.65 13.9834C12.4167 14.2167 12.1316 14.3334 11.7948 14.3334H4.20517ZM4.20517 13.3334H11.7948C11.8462 13.3334 11.8932 13.312 11.9358 13.2692C11.9786 13.2266 12 13.1796 12 13.1282V5.53858C12 5.48725 11.9786 5.44025 11.9358 5.39758C11.8932 5.3548 11.8462 5.33341 11.7948 5.33341H10.5V6.83341C10.5 6.9753 10.4521 7.09408 10.3563 7.18975C10.2607 7.28553 10.1419 7.33341 10 7.33341C9.85811 7.33341 9.73933 7.28553 9.64367 7.18975C9.54789 7.09408 9.5 6.9753 9.5 6.83341V5.33341H6.5V6.83341C6.5 6.9753 6.45211 7.09408 6.35633 7.18975C6.26067 7.28553 6.14189 7.33341 6 7.33341C5.85811 7.33341 5.73933 7.28553 5.64367 7.18975C5.54789 7.09408 5.5 6.9753 5.5 6.83341V5.33341H4.20517C4.15383 5.33341 4.10683 5.3548 4.06417 5.39758C4.02139 5.44025 4 5.48725 4 5.53858V13.1282C4 13.1796 4.02139 13.2266 4.06417 13.2692C4.10683 13.312 4.15383 13.3334 4.20517 13.3334ZM6.5 4.33341H9.5V4.16675C9.5 3.74886 9.3545 3.39436 9.0635 3.10325C8.7725 2.81225 8.418 2.66675 8 2.66675C7.582 2.66675 7.2275 2.81225 6.9365 3.10325C6.6455 3.39436 6.5 3.74886 6.5 4.16675V4.33341Z" fill="#171C1F"/>
</svg>
