<svg width="17" height="16" viewBox="0 0 17 16" fill="none" xmlns="http://www.w3.org/2000/svg">
<path d="M6.5385 11.667C6.20172 11.667 5.91667 11.5503 5.68333 11.317C5.45 11.0837 5.33333 10.7986 5.33333 10.4618V2.87216C5.33333 2.53538 5.45 2.25033 5.68333 2.01699C5.91667 1.78366 6.20172 1.66699 6.5385 1.66699H12.1282C12.4649 1.66699 12.75 1.78366 12.9833 2.01699C13.2167 2.25033 13.3333 2.53538 13.3333 2.87216V10.4618C13.3333 10.7986 13.2167 11.0837 12.9833 11.317C12.75 11.5503 12.4649 11.667 12.1282 11.667H6.5385ZM6.5385 10.667H12.1282C12.1795 10.667 12.2265 10.6456 12.2692 10.6028C12.3119 10.5602 12.3333 10.5132 12.3333 10.4618V2.87216C12.3333 2.82083 12.3119 2.77383 12.2692 2.73116C12.2265 2.68838 12.1795 2.66699 12.1282 2.66699H6.5385C6.48717 2.66699 6.44017 2.68838 6.3975 2.73116C6.35472 2.77383 6.33333 2.82083 6.33333 2.87216V10.4618C6.33333 10.5132 6.35472 10.5602 6.3975 10.6028C6.44017 10.6456 6.48717 10.667 6.5385 10.667ZM4.20517 14.0003C3.86839 14.0003 3.58333 13.8837 3.35 13.6503C3.11667 13.417 3 13.1319 3 12.7952V4.70549C3 4.5636 3.04789 4.44477 3.14367 4.34899C3.23933 4.25333 3.35811 4.20549 3.5 4.20549C3.64189 4.20549 3.76072 4.25333 3.8565 4.34899C3.95217 4.44477 4 4.5636 4 4.70549V12.7952C4 12.8465 4.02139 12.8935 4.06417 12.9362C4.10683 12.9789 4.15383 13.0003 4.20517 13.0003H10.2948C10.4367 13.0003 10.5556 13.0482 10.6513 13.1438C10.747 13.2396 10.7948 13.3584 10.7948 13.5003C10.7948 13.6422 10.747 13.761 10.6513 13.8567C10.5556 13.9524 10.4367 14.0003 10.2948 14.0003H4.20517Z" fill="#0096E0"/>
</svg>
