<svg width="20" height="20" viewBox="0 0 20 20" fill="none" xmlns="http://www.w3.org/2000/svg">
<path d="M10.0019 12.9808C10.9462 12.9808 11.7482 12.6503 12.4079 11.9894C13.0676 11.3284 13.3975 10.5258 13.3975 9.58146C13.3975 8.63715 13.067 7.83514 12.406 7.17542C11.7451 6.51569 10.9424 6.18583 9.99812 6.18583C9.05381 6.18583 8.2518 6.51632 7.59208 7.17729C6.93235 7.83826 6.60249 8.6409 6.60249 9.58521C6.60249 10.5295 6.93298 11.3315 7.59395 11.9913C8.25492 12.651 9.05756 12.9808 10.0019 12.9808ZM9.99999 11.8333C9.37499 11.8333 8.84374 11.6146 8.40624 11.1771C7.96874 10.7396 7.74999 10.2083 7.74999 9.58333C7.74999 8.95833 7.96874 8.42708 8.40624 7.98958C8.84374 7.55208 9.37499 7.33333 9.99999 7.33333C10.625 7.33333 11.1562 7.55208 11.5937 7.98958C12.0312 8.42708 12.25 8.95833 12.25 9.58333C12.25 10.2083 12.0312 10.7396 11.5937 11.1771C11.1562 11.6146 10.625 11.8333 9.99999 11.8333ZM9.99999 15.4167C8.24569 15.4167 6.64124 14.9487 5.18666 14.0127C3.73208 13.0769 2.57103 11.8456 1.70353 10.319C1.63409 10.1992 1.58333 10.0786 1.55124 9.95708C1.5193 9.83556 1.50333 9.71083 1.50333 9.58292C1.50333 9.455 1.5193 9.33042 1.55124 9.20917C1.58333 9.08792 1.63409 8.96743 1.70353 8.84771C2.57103 7.32104 3.73208 6.08979 5.18666 5.15396C6.64124 4.21799 8.24569 3.75 9.99999 3.75C11.7543 3.75 13.3587 4.21799 14.8133 5.15396C16.2679 6.08979 17.4289 7.32104 18.2964 8.84771C18.3659 8.96743 18.4167 9.08806 18.4487 9.20958C18.4807 9.33111 18.4967 9.45583 18.4967 9.58375C18.4967 9.71167 18.4807 9.83625 18.4487 9.9575C18.4167 10.0788 18.3659 10.1992 18.2964 10.319C17.4289 11.8456 16.2679 13.0769 14.8133 14.0127C13.3587 14.9487 11.7543 15.4167 9.99999 15.4167ZM9.99999 14.1667C11.5694 14.1667 13.0104 13.7535 14.3229 12.9271C15.6354 12.1007 16.6389 10.9861 17.3333 9.58333C16.6389 8.18056 15.6354 7.06597 14.3229 6.23958C13.0104 5.41319 11.5694 5 9.99999 5C8.43055 5 6.98958 5.41319 5.67708 6.23958C4.36458 7.06597 3.3611 8.18056 2.66666 9.58333C3.3611 10.9861 4.36458 12.1007 5.67708 12.9271C6.98958 13.7535 8.43055 14.1667 9.99999 14.1667Z" fill="white"/>
</svg>
