<svg width="16" height="16" viewBox="0 0 16 16" fill="none" xmlns="http://www.w3.org/2000/svg">
<path d="M7.99363 13.1398C7.85085 13.1398 7.70746 13.1142 7.56346 13.0629C7.41946 13.0116 7.29274 12.9313 7.18329 12.8219L6.22563 11.9514C5.04363 10.8737 3.98829 9.81488 3.05963 8.7751C2.13096 7.73532 1.66663 6.62143 1.66663 5.43343C1.66663 4.48732 1.98563 3.69521 2.62363 3.0571C3.26174 2.4191 4.05385 2.1001 4.99996 2.1001C5.53751 2.1001 6.06851 2.22404 6.59296 2.47193C7.11729 2.71982 7.58629 3.12238 7.99996 3.6796C8.41363 3.12238 8.88263 2.71982 9.40696 2.47193C9.9314 2.22404 10.4624 2.1001 11 2.1001C11.9461 2.1001 12.7382 2.4191 13.3763 3.0571C14.0143 3.69521 14.3333 4.48732 14.3333 5.43343C14.3333 6.63432 13.8611 7.7606 12.9166 8.81226C11.9722 9.86393 10.9192 10.9137 9.75763 11.9616L8.81013 12.8219C8.70079 12.9313 8.57307 13.0116 8.42696 13.0629C8.28074 13.1142 8.13629 13.1398 7.99363 13.1398ZM7.52046 4.69243C7.15979 4.14288 6.78007 3.7401 6.38129 3.4841C5.98263 3.2281 5.52218 3.1001 4.99996 3.1001C4.33329 3.1001 3.77774 3.32232 3.33329 3.76676C2.88885 4.21121 2.66663 4.76676 2.66663 5.43343C2.66663 5.96843 2.83907 6.52782 3.18396 7.1116C3.52885 7.69538 3.96174 8.27571 4.48263 8.8526C5.00351 9.4296 5.56785 9.99326 6.17563 10.5436C6.78329 11.094 7.34651 11.6056 7.86529 12.0783C7.90374 12.1125 7.94863 12.1296 7.99996 12.1296C8.05129 12.1296 8.09618 12.1125 8.13463 12.0783C8.6534 11.6056 9.21663 11.094 9.82429 10.5436C10.4321 9.99326 10.9964 9.4296 11.5173 8.8526C12.0382 8.27571 12.4711 7.69538 12.816 7.1116C13.1608 6.52782 13.3333 5.96843 13.3333 5.43343C13.3333 4.76676 13.1111 4.21121 12.6666 3.76676C12.2222 3.32232 11.6666 3.1001 11 3.1001C10.4777 3.1001 10.0173 3.2281 9.61863 3.4841C9.21985 3.7401 8.84013 4.14288 8.47946 4.69243C8.42301 4.77788 8.35207 4.84199 8.26663 4.88476C8.18118 4.92743 8.09229 4.94876 7.99996 4.94876C7.90763 4.94876 7.81874 4.92743 7.73329 4.88476C7.64785 4.84199 7.5769 4.77788 7.52046 4.69243Z" fill="#3B0908"/>
</svg>
