<svg width="20" height="20" viewBox="0 0 20 20" fill="none" xmlns="http://www.w3.org/2000/svg">
<path d="M9.98397 17.0837C8.30883 17.0837 6.83237 16.5724 5.5546 15.5499C4.27682 14.5275 3.45786 13.2194 3.09772 11.6253C3.05286 11.4598 3.07987 11.3075 3.17876 11.1687C3.27751 11.0298 3.41744 10.9491 3.59855 10.9266C3.76897 10.9042 3.92175 10.9379 4.05689 11.0276C4.19203 11.1173 4.28633 11.2493 4.3398 11.4235C4.65703 12.7108 5.3405 13.7677 6.39022 14.5941C7.43994 15.4205 8.63786 15.8337 9.98397 15.8337C11.609 15.8337 12.9874 15.2677 14.1194 14.1357C15.2513 13.0038 15.8173 11.6253 15.8173 10.0003C15.8173 8.37533 15.2513 6.99685 14.1194 5.86491C12.9874 4.73296 11.609 4.16699 9.98397 4.16699C9.07369 4.16699 8.22064 4.36921 7.42481 4.77366C6.62883 5.17796 5.94342 5.73428 5.36855 6.44262H6.92314C7.10022 6.44262 7.24862 6.50255 7.36835 6.62241C7.48821 6.74227 7.54814 6.89074 7.54814 7.06783C7.54814 7.24505 7.48821 7.39345 7.36835 7.51303C7.24862 7.63276 7.10022 7.69262 6.92314 7.69262H4.07064C3.85717 7.69262 3.67828 7.6204 3.53397 7.47595C3.38953 7.33165 3.3173 7.15276 3.3173 6.93928V4.08678C3.3173 3.9097 3.37724 3.7613 3.4971 3.64158C3.61696 3.52172 3.7655 3.46178 3.94272 3.46178C4.1198 3.46178 4.26821 3.52172 4.38793 3.64158C4.50751 3.7613 4.5673 3.9097 4.5673 4.08678V5.43616C5.24355 4.6381 6.05342 4.01873 6.99689 3.57803C7.94022 3.13734 8.93592 2.91699 9.98397 2.91699C10.9673 2.91699 11.8883 3.1029 12.7471 3.4747C13.6058 3.84651 14.3547 4.35185 14.9936 4.99074C15.6324 5.62963 16.1378 6.37838 16.5096 7.23699C16.8814 8.09574 17.0673 9.01672 17.0673 9.99991C17.0673 10.9831 16.8814 11.9041 16.5096 12.763C16.1378 13.6221 15.6324 14.371 14.9936 15.0099C14.3547 15.6488 13.6058 16.1541 12.7471 16.526C11.8883 16.8978 10.9673 17.0837 9.98397 17.0837ZM10.6329 9.7472L12.9246 12.0389C13.04 12.1541 13.099 12.2991 13.1017 12.4739C13.1045 12.6486 13.0454 12.7963 12.9246 12.917C12.8039 13.0377 12.6576 13.098 12.4856 13.098C12.3136 13.098 12.1672 13.0377 12.0465 12.917L9.60897 10.4795C9.53105 10.4014 9.4739 10.3164 9.43751 10.2245C9.40126 10.1325 9.38314 10.0375 9.38314 9.93949V6.45866C9.38314 6.28158 9.443 6.1331 9.56272 6.01324C9.68258 5.89352 9.83112 5.83366 10.0083 5.83366C10.1854 5.83366 10.3338 5.89352 10.4536 6.01324C10.5731 6.1331 10.6329 6.28158 10.6329 6.45866V9.7472Z" fill="#001E31"/>
</svg>
