<svg width="16" height="14" viewBox="0 0 16 14" fill="none" xmlns="http://www.w3.org/2000/svg">
<path d="M4.41031 14C4.11198 14 3.85787 13.8951 3.64798 13.6853C3.4382 13.4754 3.33331 13.2213 3.33331 12.923V3.077C3.33331 2.77867 3.4382 2.52456 3.64798 2.31467C3.85787 2.10489 4.11198 2 4.41031 2H11.5896C11.888 2 12.1421 2.10489 12.352 2.31467C12.5618 2.52456 12.6666 2.77867 12.6666 3.077V12.923C12.6666 13.2213 12.5618 13.4754 12.352 13.6853C12.1421 13.8951 11.888 14 11.5896 14H4.41031ZM4.41031 13.3333H11.5896C11.6923 13.3333 11.7864 13.2906 11.8718 13.2052C11.9573 13.1197 12 13.0257 12 12.923V3.077C12 2.97433 11.9573 2.88028 11.8718 2.79483C11.7864 2.70939 11.6923 2.66667 11.5896 2.66667H4.41031C4.30765 2.66667 4.21359 2.70939 4.12815 2.79483C4.0427 2.88028 3.99998 2.97433 3.99998 3.077V12.923C3.99998 13.0257 4.0427 13.1197 4.12815 13.2052C4.21359 13.2906 4.30765 13.3333 4.41031 13.3333ZM7.99998 12.1538C8.77687 12.1538 9.4412 11.878 9.99298 11.3263C10.5446 10.7746 10.8205 10.1102 10.8205 9.33333C10.8205 8.55644 10.5446 7.89211 9.99298 7.34033C9.4412 6.78867 8.77687 6.51283 7.99998 6.51283C7.22309 6.51283 6.55876 6.78867 6.00698 7.34033C5.45531 7.89211 5.17948 8.55644 5.17948 9.33333C5.17948 10.1102 5.45531 10.7746 6.00698 11.3263C6.55876 11.878 7.22309 12.1538 7.99998 12.1538ZM7.99998 11.5333C7.71109 11.5333 7.43265 11.4784 7.16465 11.3687C6.89676 11.2588 6.66154 11.1026 6.45898 10.9L9.56665 7.79233C9.7692 7.99489 9.92542 8.23011 10.0353 8.498C10.1451 8.766 10.2 9.04445 10.2 9.33333C10.2 9.94444 9.98609 10.4639 9.55831 10.8917C9.13054 11.3194 8.61109 11.5333 7.99998 11.5333ZM5.33331 4.66667C5.5222 4.66667 5.68054 4.60278 5.80831 4.475C5.93609 4.34722 5.99998 4.18889 5.99998 4C5.99998 3.81111 5.93609 3.65278 5.80831 3.525C5.68054 3.39722 5.5222 3.33333 5.33331 3.33333C5.14442 3.33333 4.98609 3.39722 4.85831 3.525C4.73054 3.65278 4.66665 3.81111 4.66665 4C4.66665 4.18889 4.73054 4.34722 4.85831 4.475C4.98609 4.60278 5.14442 4.66667 5.33331 4.66667ZM7.33331 4.66667C7.5222 4.66667 7.68054 4.60278 7.80831 4.475C7.93609 4.34722 7.99998 4.18889 7.99998 4C7.99998 3.81111 7.93609 3.65278 7.80831 3.525C7.68054 3.39722 7.5222 3.33333 7.33331 3.33333C7.14442 3.33333 6.98609 3.39722 6.85831 3.525C6.73054 3.65278 6.66665 3.81111 6.66665 4C6.66665 4.18889 6.73054 4.34722 6.85831 4.475C6.98609 4.60278 7.14442 4.66667 7.33331 4.66667Z" fill="#171C1F"/>
</svg>
