<svg width="16" height="16" viewBox="0 0 16 16" fill="none" xmlns="http://www.w3.org/2000/svg">
<path fill-rule="evenodd" clip-rule="evenodd" d="M8.00002 14.1263L8.48087 13.5839C9.02628 12.9599 9.51715 12.3662 9.95348 11.8028L10.3141 11.3274C11.819 9.29963 12.5714 7.69105 12.5714 6.5017C12.5714 3.96289 10.5247 1.90479 8.00002 1.90479C5.47529 1.90479 3.42859 3.96289 3.42859 6.5017C3.42859 7.69105 4.18103 9.29963 5.68592 11.3274L6.04656 11.8028C6.60755 12.5271 7.2587 13.3016 8.00002 14.1263Z" stroke="#002204" stroke-linecap="round" stroke-linejoin="round"/>
<path d="M8.00004 8.38106C9.05201 8.38106 9.9048 7.52827 9.9048 6.4763C9.9048 5.42432 9.05201 4.57153 8.00004 4.57153C6.94807 4.57153 6.09528 5.42432 6.09528 6.4763C6.09528 7.52827 6.94807 8.38106 8.00004 8.38106Z" stroke="#002204" stroke-linecap="round" stroke-linejoin="round"/>
</svg>
