<svg width="32" height="32" viewBox="0 0 32 32" fill="none" xmlns="http://www.w3.org/2000/svg">
<rect width="32" height="32" rx="5" fill="#E4FFE0"/>
<path d="M18.3808 20.235C19.9335 20.0512 21.4591 19.6847 22.9258 19.1433C21.6836 17.7673 20.9973 15.9787 21 14.125V13.5C21 12.1739 20.4732 10.9021 19.5355 9.96447C18.5979 9.02678 17.3261 8.5 16 8.5C14.6739 8.5 13.4021 9.02678 12.4645 9.96447C11.5268 10.9021 11 12.1739 11 13.5V14.125C11.0025 15.9789 10.3158 17.7675 9.07333 19.1433C10.5175 19.6767 12.04 20.0475 13.6192 20.235M18.3808 20.235C16.7992 20.4226 15.2008 20.4226 13.6192 20.235M18.3808 20.235C18.5009 20.6099 18.5308 21.0078 18.468 21.3964C18.4052 21.785 18.2515 22.1533 18.0195 22.4713C17.7874 22.7893 17.4836 23.048 17.1327 23.2263C16.7817 23.4047 16.3936 23.4976 16 23.4976C15.6064 23.4976 15.2183 23.4047 14.8673 23.2263C14.5164 23.048 14.2126 22.7893 13.9805 22.4713C13.7485 22.1533 13.5948 21.785 13.532 21.3964C13.4692 21.0078 13.4991 20.6099 13.6192 20.235" stroke="#002204" stroke-width="1.5" stroke-linecap="round" stroke-linejoin="round"/>
</svg>
