<svg width="20" height="21" viewBox="0 0 20 21" fill="none" xmlns="http://www.w3.org/2000/svg">
<path d="M11.1667 12.693C11.1667 13.3374 10.6444 13.8597 10 13.8597C9.35571 13.8597 8.83337 13.3374 8.83337 12.693C8.83337 12.0487 9.35571 11.5264 10 11.5264C10.6444 11.5264 11.1667 12.0487 11.1667 12.693Z" fill="black" stroke="#404942"/>
<path d="M3.75 11.4431C3.75 9.87141 3.75 9.08641 4.23833 8.59807C4.72667 8.10974 5.51167 8.10974 7.08333 8.10974H12.9167C14.4883 8.10974 15.2733 8.10974 15.7617 8.59807C16.25 9.08641 16.25 9.87141 16.25 11.4431V12.2764C16.25 14.6331 16.25 15.8122 15.5175 16.5439C14.7858 17.2764 13.6067 17.2764 11.25 17.2764H8.75C6.39333 17.2764 5.21417 17.2764 4.4825 16.5439C3.75 15.8122 3.75 14.6331 3.75 12.2764V11.4431Z" stroke="black"/>
<path d="M13.75 8.10974V6.85974C13.75 5.86518 13.3549 4.91135 12.6516 4.20809C11.9484 3.50483 10.9946 3.10974 10 3.10974C9.00544 3.10974 8.05161 3.50483 7.34835 4.20809C6.64509 4.91135 6.25 5.86518 6.25 6.85974V8.10974" stroke="black" stroke-linecap="round"/>
</svg>
