<svg width="393" height="308" viewBox="0 0 393 308" fill="none" xmlns="http://www.w3.org/2000/svg">
<g clip-path="url(#clip0_439_8116)">
<rect x="-7" y="-27.3333" width="41.6667" height="41.6667" rx="4.5977" stroke="#E4FFE0" stroke-width="0.431035"/>
<rect x="34.6667" y="-27.3333" width="41.6667" height="41.6667" rx="4.5977" stroke="#E4FFE0" stroke-width="0.431035"/>
<rect x="76.3333" y="-27.3333" width="41.6667" height="41.6667" rx="4.5977" stroke="#E4FFE0" stroke-width="0.431035"/>
<rect x="118" y="-27.3333" width="41.6667" height="41.6667" rx="4.5977" stroke="#E4FFE0" stroke-width="0.431035"/>
<rect x="159.667" y="-27.3333" width="41.6667" height="41.6667" rx="4.5977" stroke="#E4FFE0" stroke-width="0.431035"/>
<rect x="201.333" y="-27.3333" width="41.6667" height="41.6667" rx="4.5977" stroke="#E4FFE0" stroke-width="0.431035"/>
<rect x="-7" y="14.3333" width="41.6667" height="41.6667" rx="4.5977" stroke="#E4FFE0" stroke-width="0.431035"/>
<rect x="34.6667" y="14.3333" width="41.6667" height="41.6667" rx="4.5977" stroke="#E4FFE0" stroke-width="0.431035"/>
<rect x="76.3333" y="14.3333" width="41.6667" height="41.6667" rx="4.5977" stroke="#E4FFE0" stroke-width="0.431035"/>
<rect x="118" y="14.3333" width="41.6667" height="41.6667" rx="4.5977" stroke="#E4FFE0" stroke-width="0.431035"/>
<rect x="159.667" y="14.3333" width="41.6667" height="41.6667" rx="4.5977" stroke="#E4FFE0" stroke-width="0.431035"/>
<rect x="201.333" y="14.3333" width="41.6667" height="41.6667" rx="4.5977" stroke="#E4FFE0" stroke-width="0.431035"/>
<rect x="-7" y="56" width="41.6667" height="41.6667" rx="4.5977" stroke="#E4FFE0" stroke-width="0.431035"/>
<rect x="34.6667" y="56" width="41.6667" height="41.6667" rx="4.5977" stroke="#E4FFE0" stroke-width="0.431035"/>
<rect x="76.3333" y="56" width="41.6667" height="41.6667" rx="4.5977" stroke="#E4FFE0" stroke-width="0.431035"/>
<rect x="118" y="56" width="41.6667" height="41.6667" rx="4.5977" stroke="#E4FFE0" stroke-width="0.431035"/>
<rect x="159.667" y="56" width="41.6667" height="41.6667" rx="4.5977" stroke="#E4FFE0" stroke-width="0.431035"/>
<rect x="201.333" y="56" width="41.6667" height="41.6667" rx="4.5977" stroke="#E4FFE0" stroke-width="0.431035"/>
<rect x="-7" y="97.6667" width="41.6667" height="41.6667" rx="4.5977" stroke="#E4FFE0" stroke-width="0.431035"/>
<rect x="34.6667" y="97.6667" width="41.6667" height="41.6667" rx="4.5977" stroke="#E4FFE0" stroke-width="0.431035"/>
<rect x="76.3333" y="97.6667" width="41.6667" height="41.6667" rx="4.5977" stroke="#E4FFE0" stroke-width="0.431035"/>
<rect x="118" y="97.6667" width="41.6667" height="41.6667" rx="4.5977" stroke="#E4FFE0" stroke-width="0.431035"/>
<rect x="159.667" y="97.6667" width="41.6667" height="41.6667" rx="4.5977" stroke="#E4FFE0" stroke-width="0.431035"/>
<rect x="201.333" y="97.6667" width="41.6667" height="41.6667" rx="4.5977" stroke="#E4FFE0" stroke-width="0.431035"/>
<rect x="-7" y="139.333" width="41.6667" height="41.6667" rx="4.5977" stroke="#E4FFE0" stroke-width="0.431035"/>
<rect x="34.6667" y="139.333" width="41.6667" height="41.6667" rx="4.5977" stroke="#E4FFE0" stroke-width="0.431035"/>
<rect x="76.3333" y="139.333" width="41.6667" height="41.6667" rx="4.5977" stroke="#E4FFE0" stroke-width="0.431035"/>
<rect x="118" y="139.333" width="41.6667" height="41.6667" rx="4.5977" stroke="#E4FFE0" stroke-width="0.431035"/>
<rect x="159.667" y="139.333" width="41.6667" height="41.6667" rx="4.5977" stroke="#E4FFE0" stroke-width="0.431035"/>
<rect x="201.333" y="139.333" width="41.6667" height="41.6667" rx="4.5977" stroke="#E4FFE0" stroke-width="0.431035"/>
<rect x="-7" y="181" width="41.6667" height="41.6667" rx="4.5977" stroke="#E4FFE0" stroke-width="0.431035"/>
<rect x="34.6667" y="181" width="41.6667" height="41.6667" rx="4.5977" stroke="#E4FFE0" stroke-width="0.431035"/>
<rect x="76.3333" y="181" width="41.6667" height="41.6667" rx="4.5977" stroke="#E4FFE0" stroke-width="0.431035"/>
<rect x="118" y="181" width="41.6667" height="41.6667" rx="4.5977" stroke="#E4FFE0" stroke-width="0.431035"/>
<rect x="159.667" y="181" width="41.6667" height="41.6667" rx="4.5977" stroke="#E4FFE0" stroke-width="0.431035"/>
<rect x="201.333" y="181" width="41.6667" height="41.6667" rx="4.5977" stroke="#E4FFE0" stroke-width="0.431035"/>
<path d="M159.667 -23.885V9.73568C159.667 12.2749 161.725 14.3334 164.264 14.3334H196.736C199.275 14.3334 201.333 16.3918 201.333 18.9311V51.4023C201.333 53.9416 203.392 56 205.931 56H238.402C240.942 56 243 58.0585 243 60.5977V93.069C243 95.6082 245.058 97.6667 247.598 97.6667H280.069C282.608 97.6667 284.667 99.7252 284.667 102.264V134.736C284.667 137.275 286.725 139.333 289.264 139.333H322.885M118 -23.885V9.73568C118 12.2749 120.058 14.3334 122.598 14.3334H155.069C157.608 14.3334 159.667 16.3918 159.667 18.9311V51.4023C159.667 53.9416 161.725 56 164.264 56H196.736C199.275 56 201.333 58.0585 201.333 60.5977V93.069C201.333 95.6082 199.275 97.6667 196.736 97.6667H164.264C161.725 97.6667 159.667 95.6082 159.667 93.069V60.023L159.626 59.7515C159.318 57.669 157.55 56.1141 155.446 56.0736L151.621 56H122.598C120.058 56 118 58.0585 118 60.5977V93.069C118 95.6082 120.058 97.6667 122.598 97.6667H155.356L156.448 97.7395C158.259 97.8602 159.667 99.3647 159.667 101.18V104.707M159.667 101.115V134.736C159.667 137.275 161.725 139.333 164.264 139.333H196.736C199.275 139.333 201.333 141.392 201.333 143.931V176.402C201.333 178.942 203.392 181 205.931 181H238.402C240.942 181 243 183.059 243 185.598V218.069C243 220.608 245.058 222.667 247.598 222.667H280.069C282.608 222.667 284.667 224.725 284.667 227.264V259.736C284.667 262.275 286.725 264.333 289.264 264.333H322.885" stroke="url(#paint0_linear_439_8116)" stroke-width="0.431035"/>
</g>
<defs>
<linearGradient id="paint0_linear_439_8116" x1="220.443" y1="-23.885" x2="167.037" y2="263.264" gradientUnits="userSpaceOnUse">
<stop stop-color="#388E3C"/>
<stop offset="1" stop-color="#003F00"/>
</linearGradient>
<clipPath id="clip0_439_8116">
<rect width="408" height="344" fill="white" transform="translate(-7)"/>
</clipPath>
</defs>
</svg>
