<svg width="16" height="16" viewBox="0 0 16 16" fill="none" xmlns="http://www.w3.org/2000/svg">
<path d="M5.64506 2.50735L5.64506 2.50735C5.51864 2.39938 5.37302 2.34551 5.20768 2.34551H3.03334C2.83647 2.34551 2.67307 2.4116 2.54222 2.54364C2.41137 2.67569 2.34584 2.84067 2.34584 3.03951C2.34584 4.29384 2.63748 5.55312 3.22103 6.81744C3.80459 8.08189 4.62676 9.24569 5.68769 10.3088C6.74872 11.3719 7.91246 12.1951 9.17891 12.7787C10.4455 13.3622 11.7058 13.6538 12.9602 13.6538C13.159 13.6538 13.324 13.5883 13.456 13.4575C13.5881 13.3266 13.6542 13.1632 13.6542 12.9663V10.8048C13.6542 10.6463 13.602 10.5047 13.4974 10.3795C13.3928 10.2544 13.2578 10.1699 13.092 10.126L11.2416 9.74917C11.0835 9.72725 10.9314 9.73784 10.785 9.78083C10.6387 9.8239 10.5143 9.89889 10.4115 10.0058L10.4114 10.006L8.91539 11.515L8.90867 11.5218L8.90036 11.5171C8.42212 11.2467 7.97675 10.9545 7.56427 10.6405C7.15182 10.3264 6.76251 9.9863 6.39634 9.62001C6.02499 9.25133 5.68 8.86446 5.36135 8.4594C5.04248 8.05408 4.75898 7.62422 4.51087 7.16983L4.50632 7.1615L4.51312 7.15488L6.05279 5.65605L6.05308 5.65577L6.05309 5.65577L5.64506 2.50735ZM5.64506 2.50735C5.77167 2.61537 5.85201 2.7486 5.88643 2.90736C5.88644 2.9074 5.88645 2.90745 5.88646 2.90749L6.26852 4.86843C6.29474 5.04913 6.28907 5.20353 6.25216 5.33205L5.64506 2.50735ZM4.03724 6.22271L4.04443 6.23904L4.05732 6.22671L5.24677 5.08857C5.27036 5.06948 5.28546 5.04345 5.2924 5.01131C5.29919 4.97982 5.29824 4.95001 5.28913 4.92218L4.99945 3.43312L4.99946 3.43312L4.9993 3.43247C4.99027 3.39647 4.97417 3.36817 4.95016 3.34892C4.9261 3.32962 4.89534 3.32051 4.85901 3.32051H3.43334C3.40458 3.32051 3.37995 3.33023 3.36034 3.34984L3.36031 3.34986C3.34082 3.36948 3.33118 3.39411 3.33118 3.42284H3.33114L3.33121 3.42377C3.36538 3.88006 3.44005 4.34352 3.5552 4.81415C3.67027 5.285 3.83096 5.75453 4.03724 6.22271ZM9.83979 11.9704L9.8273 11.983L9.84339 11.9905C10.2861 12.1969 10.7478 12.3547 11.2286 12.4639C11.7092 12.5729 12.1584 12.6377 12.5762 12.6583L12.5762 12.6583H12.5768C12.6056 12.6583 12.6302 12.6486 12.6498 12.629C12.6695 12.6094 12.6792 12.5848 12.6792 12.556V11.1535C12.6792 11.1172 12.6701 11.0864 12.6508 11.0624C12.6315 11.0384 12.6032 11.0222 12.5672 11.0132L12.5667 11.0131L11.1674 10.7286C11.1403 10.7197 11.1152 10.7182 11.0929 10.7257C11.0711 10.7329 11.0492 10.7482 11.027 10.7703L11.027 10.7704L9.83979 11.9704Z" fill="#404942" stroke="#002204" stroke-width="0.025"/>
</svg>
